<svg width="394" height="394" viewBox="0 0 394 394" fill="none" xmlns="http://www.w3.org/2000/svg">
<path opacity="0.15" d="M156.459 65.6537C156.062 67.6209 156.161 69.6572 156.749 71.5754L156.735 71.5754C157.315 73.4594 158.348 75.1698 159.742 76.5545C161.136 77.9393 162.849 78.9554 164.727 79.5126C166.605 80.0697 168.591 80.1506 170.508 79.7481C172.425 79.3455 174.213 78.472 175.714 77.2052C177.214 75.9384 178.381 74.3176 179.11 72.487C179.838 70.6564 180.107 68.6727 179.891 66.7125C179.674 64.7523 178.981 62.8762 177.871 61.2512C176.761 59.6262 175.27 58.3027 173.53 57.3984C171.749 56.5151 170.187 55.2408 168.959 53.6691C167.731 52.0974 166.868 50.2683 166.435 48.3166L166.216 47.2838C165.759 45.0224 165.897 42.6798 166.616 40.4887C167.335 38.2976 168.612 36.3342 170.318 34.7937C173.17 32.1888 175.094 28.7118 175.792 24.8979C176.491 21.0839 175.926 17.1443 174.184 13.6856C172.442 10.2269 169.619 7.44082 166.151 5.75609C162.683 4.07136 158.762 3.58143 154.99 4.3617C151.219 5.14198 147.807 7.14924 145.279 10.0745C142.751 12.9997 141.247 16.6808 140.999 20.5511C140.752 24.4214 141.774 28.2664 143.908 31.4943C146.043 34.7222 149.171 37.154 152.812 38.4154C154.999 39.1454 156.96 40.4365 158.501 42.1618C160.043 43.8871 161.112 45.9869 161.602 48.2546L161.8 49.1979C162.206 51.142 162.168 53.1537 161.687 55.0804C161.206 57.0071 160.296 58.7982 159.025 60.3178C157.74 61.8516 156.857 63.6865 156.459 65.6537Z" fill="url(#paint0_linear_152_84)"/>
<path opacity="0.26" d="M300.039 69.7367C299.759 73.2549 298.478 76.619 296.346 79.431L296.358 79.4637C294.116 82.4202 291.037 84.6327 287.52 85.813C284.004 86.9934 280.213 87.0868 276.642 86.0812C275.355 85.6923 273.981 85.7019 272.699 86.1086C271.418 86.5154 270.29 87.3003 269.464 88.3604C268.793 89.2303 268.357 90.2576 268.197 91.3443C268.036 92.431 268.157 93.5408 268.547 94.5678C269.224 96.2544 269.452 98.0876 269.21 99.8886C268.968 101.69 268.264 103.397 267.165 104.844C265.535 107.021 263.127 108.483 260.444 108.925C257.761 109.367 255.011 108.755 252.768 107.216C250.526 105.676 248.964 103.33 248.411 100.667C247.857 98.0033 248.353 95.2292 249.797 92.9242C250.833 91.245 252.32 89.8914 254.089 89.0183C255.858 88.1452 257.837 87.7878 259.8 87.9868C260.91 88.0955 262.029 87.9186 263.051 87.4729C264.074 87.0272 264.965 86.3276 265.641 85.4403C266.44 84.3598 266.894 83.062 266.941 81.7183C266.988 80.3746 266.627 79.0481 265.905 77.9136C264.011 74.8233 263.067 71.2441 263.192 67.6218C263.316 63.9995 264.503 60.494 266.604 57.5419C268.705 54.5899 271.629 52.3216 275.01 51.0195C278.391 49.7174 282.08 49.4391 285.618 50.2191C287.292 50.6063 289.042 50.5063 290.66 49.9311C292.279 49.3558 293.699 48.3293 294.753 46.9726L295.438 46.0675C296.777 44.2828 297.398 42.0605 297.178 39.8396C297.063 38.5825 297.318 37.3191 297.912 36.2054C298.505 35.0916 299.412 34.1761 300.519 33.5715C301.627 32.9669 302.887 32.6995 304.145 32.8026C305.403 32.9056 306.603 33.3745 307.598 34.1514C308.906 35.2025 309.761 36.715 309.989 38.3778C310.216 40.0407 309.798 41.7272 308.82 43.0906C307.852 44.401 306.427 45.2988 304.827 45.6052C302.667 45.9564 300.715 47.1009 299.354 48.8149L298.556 49.8778C297.534 51.2646 296.931 52.9159 296.819 54.6354C296.708 56.3548 297.091 58.0704 297.925 59.5785C299.585 62.6933 300.319 66.2184 300.039 69.7367Z" fill="url(#paint1_linear_152_84)"/>
<path opacity="0.15" d="M309.557 132.029C309.723 133.513 309.435 135.012 308.732 136.329C308.028 137.646 306.943 138.719 305.618 139.408C304.531 139.971 303.316 140.243 302.092 140.199C300.868 140.154 299.676 139.794 298.632 139.154C296.47 137.791 293.922 137.172 291.376 137.393C288.83 137.614 286.426 138.661 284.531 140.376C282.636 142.09 281.354 144.377 280.88 146.889C280.406 149.4 280.767 151.997 281.907 154.284C283.048 156.571 284.905 158.423 287.195 159.556C289.486 160.689 292.085 161.041 294.594 160.56C297.104 160.078 299.387 158.788 301.096 156.888C302.804 154.987 303.844 152.58 304.056 150.033C304.159 148.798 304.576 147.61 305.268 146.582C305.961 145.554 306.905 144.721 308.011 144.162C309.352 143.508 310.86 143.275 312.336 143.493C313.812 143.711 315.188 144.371 316.282 145.386C319.275 148.077 322.993 149.828 326.974 150.422C330.955 151.015 335.023 150.423 338.67 148.722C342.318 147.02 345.384 144.282 347.487 140.85C349.59 137.418 350.636 133.444 350.497 129.421C350.402 127.507 350.86 125.607 351.814 123.945C352.769 122.284 354.181 120.932 355.882 120.05L357.006 119.481C359.224 118.374 361.778 118.14 364.161 118.827C365.884 119.321 367.731 119.145 369.331 118.334C370.182 117.906 370.94 117.313 371.56 116.589C372.18 115.865 372.65 115.025 372.942 114.118C373.234 113.21 373.343 112.254 373.262 111.304C373.181 110.355 372.912 109.431 372.47 108.586C371.585 106.946 370.105 105.707 368.335 105.125C366.565 104.543 364.639 104.661 362.953 105.455C361.327 106.243 360.059 107.617 359.406 109.302C358.582 111.585 356.936 113.478 354.79 114.611L353.466 115.28C351.745 116.118 349.82 116.445 347.919 116.221C346.018 115.997 344.221 115.233 342.741 114.018C339.592 111.512 335.774 109.988 331.765 109.635C327.755 109.283 323.731 110.118 320.192 112.036C316.654 113.955 313.758 116.872 311.866 120.424C309.974 123.977 309.168 128.007 309.55 132.014L309.557 132.029ZM315.066 158.958C317.209 158.292 319.486 158.178 321.684 158.626C323.883 159.074 325.934 160.069 327.646 161.52C329.349 162.939 331.353 163.953 333.505 164.486C335.657 165.019 337.902 165.057 340.071 164.597L341.125 164.382C343.659 163.829 346.006 162.626 347.934 160.892C349.862 159.157 351.304 156.95 352.12 154.488C353.53 150.389 356.248 146.868 359.855 144.465C363.463 142.063 367.76 140.913 372.085 141.193C376.41 141.472 380.523 143.165 383.792 146.012C387.06 148.858 389.302 152.7 390.173 156.946C391.044 161.192 390.495 165.606 388.611 169.509C386.726 173.413 383.612 176.588 379.746 178.548C375.88 180.507 371.477 181.141 367.215 180.353C362.953 179.564 359.068 177.397 356.159 174.184C354.439 172.264 352.246 170.828 349.799 170.018C347.352 169.209 344.736 169.053 342.21 169.568L341.056 169.806C338.877 170.297 336.834 171.269 335.078 172.651C333.322 174.033 331.898 175.789 330.908 177.792C329.899 179.752 328.42 181.432 326.605 182.683C324.789 183.933 322.693 184.716 320.502 184.96C318.311 185.204 316.094 184.903 314.047 184.083C312.001 183.264 310.189 181.951 308.772 180.261C307.356 178.572 306.38 176.558 305.93 174.4C305.479 172.242 305.57 170.006 306.193 167.892C306.816 165.777 307.952 163.849 309.5 162.28C311.048 160.71 312.96 159.548 315.066 158.896L315.066 158.958ZM346.75 185.255C350.663 185.477 354.431 186.815 357.608 189.111C360.785 191.407 363.238 194.565 364.676 198.212C365.349 200.005 366.522 201.567 368.057 202.712C369.591 203.858 371.422 204.539 373.332 204.675L374.809 204.752C377.232 204.835 379.6 204.012 381.449 202.443C382.86 201.315 384.648 200.765 386.45 200.905C388.308 201.057 390.037 201.918 391.279 203.308C392.522 204.698 393.184 206.512 393.128 208.375C393.069 209.776 392.601 211.128 391.782 212.265C390.963 213.402 389.83 214.275 388.521 214.776C387.212 215.277 385.785 215.383 384.416 215.083C383.047 214.782 381.797 214.087 380.818 213.084C379.1 211.299 376.774 210.225 374.301 210.076L373.039 209.999C371.126 209.915 369.228 210.382 367.573 211.345C365.917 212.308 364.572 213.726 363.699 215.431C361.81 218.985 358.916 221.905 355.379 223.826C351.842 225.748 347.817 226.586 343.807 226.236C339.797 225.887 335.978 224.365 332.827 221.861C329.675 219.357 327.33 215.981 326.084 212.153C325.646 210.726 324.786 209.466 323.617 208.539C322.448 207.611 321.025 207.061 319.536 206.96C318.301 206.886 317.068 207.13 315.954 207.669C314.84 208.208 313.883 209.023 313.174 210.037C311.927 211.84 310.198 213.257 308.184 214.123C306.17 214.99 303.953 215.272 301.787 214.938C298.812 214.483 296.127 212.899 294.288 210.517C292.45 208.134 291.599 205.135 291.913 202.142C292.226 199.149 293.681 196.392 295.973 194.442C298.266 192.493 301.221 191.501 304.226 191.672C306.241 191.785 308.193 192.419 309.891 193.511C311.588 194.603 312.974 196.117 313.912 197.904C314.496 198.981 315.349 199.889 316.387 200.54C317.424 201.191 318.613 201.563 319.837 201.62C321.328 201.688 322.805 201.301 324.071 200.511C325.338 199.721 326.335 198.565 326.93 197.196C328.649 193.443 331.461 190.296 334.996 188.166C338.532 186.036 342.628 185.021 346.75 185.255ZM318.221 223.317C320.408 223.814 322.435 224.854 324.115 226.342C325.794 227.829 327.072 229.715 327.83 231.826C328.593 233.914 329.821 235.801 331.42 237.345C333.02 238.888 334.949 240.048 337.063 240.736L338.086 241.074C340.557 241.862 343.19 241.992 345.726 241.453C348.263 240.913 350.615 239.722 352.551 237.997C355.821 235.152 359.935 233.461 364.26 233.184C368.585 232.906 372.881 234.058 376.488 236.462C380.094 238.866 382.81 242.389 384.218 246.488C385.626 250.587 385.647 255.035 384.279 259.148C382.911 263.26 380.229 266.809 376.646 269.248C373.064 271.686 368.779 272.88 364.451 272.645C360.123 272.41 355.993 270.758 352.696 267.945C349.399 265.133 347.117 261.314 346.203 257.077C345.669 254.557 344.486 252.221 342.771 250.299C341.056 248.377 338.868 246.937 336.424 246.121L335.294 245.752C333.161 245.084 330.906 244.903 328.694 245.223C326.482 245.542 324.37 246.354 322.514 247.599C320.659 248.79 318.539 249.504 316.342 249.678C314.144 249.852 311.938 249.48 309.919 248.596C307.9 247.711 306.131 246.341 304.77 244.607C303.409 242.874 302.497 240.83 302.116 238.659C301.735 236.488 301.897 234.257 302.586 232.163C303.276 230.07 304.473 228.179 306.07 226.66C307.667 225.141 309.615 224.04 311.74 223.455C313.865 222.87 316.102 222.82 318.252 223.309L318.221 223.317ZM332.508 261.925C335.788 264.073 338.382 267.117 339.984 270.695C341.587 274.273 342.129 278.236 341.549 282.113C341.238 284.002 341.475 285.941 342.234 287.699C342.992 289.457 344.239 290.96 345.826 292.031L347.057 292.8C349.118 294.094 351.588 294.569 353.982 294.131C355.771 293.848 357.601 294.258 359.098 295.277C360.63 296.338 361.697 297.946 362.078 299.77C362.459 301.594 362.125 303.494 361.145 305.079C360.394 306.265 359.313 307.206 358.034 307.784C356.754 308.361 355.334 308.552 353.948 308.331C352.562 308.109 351.271 307.487 350.235 306.54C349.199 305.593 348.463 304.363 348.119 303.002C347.525 300.599 346.05 298.507 343.987 297.139L342.926 296.447C341.317 295.419 339.449 294.873 337.54 294.873C335.631 294.873 333.763 295.419 332.154 296.447C328.741 298.58 324.776 299.661 320.752 299.557C316.728 299.452 312.824 298.166 309.526 295.859C306.228 293.552 303.682 290.325 302.205 286.582C300.727 282.838 300.384 278.742 301.217 274.804C301.549 273.348 301.432 271.826 300.883 270.438C300.334 269.05 299.378 267.86 298.14 267.026C297.105 266.345 295.912 265.942 294.677 265.856C293.441 265.77 292.204 266.003 291.085 266.533C288.773 267.623 286.169 267.926 283.669 267.397C281.168 266.868 278.91 265.536 277.238 263.603C275.565 261.671 274.571 259.245 274.407 256.695C274.242 254.144 274.916 251.61 276.326 249.479C277.736 247.348 279.805 245.737 282.216 244.891C284.628 244.045 287.25 244.011 289.682 244.794C292.114 245.578 294.224 247.135 295.688 249.229C297.153 251.323 297.892 253.839 297.794 256.393C297.764 257.613 298.05 258.82 298.622 259.898C299.195 260.976 300.036 261.889 301.064 262.548C302.321 263.352 303.793 263.756 305.284 263.707C306.776 263.657 308.218 263.157 309.419 262.271C312.791 259.905 316.797 258.61 320.915 258.554C325.033 258.497 329.073 259.683 332.508 261.955L332.508 261.925ZM288.769 280.62C290.415 282.144 291.652 284.058 292.365 286.185C293.077 288.312 293.243 290.584 292.846 292.792C292.459 294.976 292.574 297.219 293.182 299.352C293.79 301.484 294.875 303.451 296.355 305.102L297.07 305.872C298.81 307.799 301.023 309.239 303.489 310.048C305.956 310.858 308.591 311.01 311.135 310.488C315.389 309.66 319.797 310.253 323.681 312.175C327.565 314.098 330.709 317.244 332.63 321.129C334.55 325.013 335.141 329.422 334.311 333.675C333.481 337.929 331.276 341.791 328.036 344.669C324.795 347.546 320.699 349.279 316.377 349.6C312.055 349.922 307.748 348.814 304.117 346.447C300.487 344.08 297.735 340.586 296.285 336.502C294.835 332.418 294.768 327.971 296.093 323.845C296.893 321.395 297.037 318.779 296.512 316.256C295.987 313.733 294.811 311.392 293.1 309.465L292.331 308.58C290.816 306.937 288.952 305.653 286.877 304.824C284.801 303.995 282.567 303.64 280.336 303.787C278.135 303.89 275.942 303.447 273.953 302.498C271.964 301.549 270.24 300.123 268.935 298.347C267.63 296.571 266.785 294.5 266.473 292.318C266.162 290.136 266.395 287.911 267.151 285.841C267.908 283.771 269.164 281.92 270.808 280.452C272.453 278.985 274.434 277.947 276.577 277.43C278.719 276.914 280.956 276.934 283.089 277.491C285.221 278.048 287.183 279.123 288.799 280.62L288.769 280.62ZM281.844 321.198C283.611 324.698 284.337 328.631 283.937 332.531C283.536 336.432 282.024 340.135 279.582 343.202C278.368 344.682 277.603 346.479 277.38 348.38C277.156 350.281 277.483 352.206 278.321 353.927L278.982 355.251C280.12 357.396 282.015 359.042 284.299 359.867C285.984 360.519 287.359 361.787 288.146 363.414C288.942 365.1 289.061 367.026 288.478 368.797C287.895 370.568 286.656 372.048 285.014 372.931C283.771 373.583 282.365 373.856 280.969 373.716C279.573 373.577 278.248 373.032 277.159 372.148C276.069 371.263 275.263 370.08 274.839 368.742C274.415 367.405 274.392 365.972 274.774 364.622C275.462 362.24 275.232 359.687 274.127 357.467L273.558 356.343C272.676 354.642 271.324 353.23 269.663 352.276C268.001 351.321 266.101 350.863 264.187 350.958C260.164 351.099 256.188 350.053 252.755 347.951C249.322 345.849 246.583 342.783 244.88 339.135C243.177 335.487 242.585 331.419 243.178 327.437C243.771 323.456 245.523 319.737 248.214 316.743C249.23 315.65 249.892 314.275 250.112 312.798C250.331 311.322 250.099 309.814 249.446 308.472C248.888 307.366 248.057 306.421 247.031 305.727C246.004 305.033 244.817 304.614 243.583 304.51C241.398 304.332 239.307 303.542 237.549 302.232C235.791 300.922 234.438 299.144 233.642 297.101C232.916 295.238 232.679 293.221 232.953 291.24C233.227 289.26 234.004 287.383 235.209 285.788C236.414 284.193 238.008 282.932 239.838 282.128C241.668 281.323 243.674 281 245.664 281.19C247.654 281.379 249.563 282.075 251.207 283.212C252.852 284.348 254.179 285.886 255.061 287.68C255.943 289.475 256.351 291.465 256.246 293.461C256.141 295.458 255.527 297.394 254.462 299.086C253.822 300.13 253.462 301.321 253.416 302.544C253.371 303.768 253.641 304.983 254.2 306.072C254.89 307.396 255.963 308.481 257.28 309.184C258.596 309.887 260.095 310.175 261.579 310.011C265.694 309.621 269.83 310.484 273.447 312.485C277.063 314.487 279.99 317.535 281.844 321.229L281.844 321.198ZM234.62 315.52C235.281 317.663 235.393 319.939 234.946 322.137C234.498 324.335 233.505 326.385 232.057 328.099C230.627 329.797 229.603 331.799 229.062 333.952C228.521 336.105 228.477 338.352 228.934 340.525L229.157 341.579C229.709 344.113 230.912 346.459 232.647 348.387C234.382 350.315 236.589 351.758 239.051 352.573C243.149 353.983 246.67 356.7 249.073 360.307C251.475 363.914 252.626 368.21 252.347 372.535C252.068 376.86 250.376 380.973 247.531 384.242C244.685 387.511 240.844 389.754 236.599 390.626C232.354 391.497 227.94 390.95 224.037 389.067C220.133 387.185 216.956 384.072 214.996 380.207C213.035 376.342 212.399 371.94 213.185 367.678C213.971 363.416 216.136 359.531 219.347 356.62C221.267 354.899 222.704 352.705 223.514 350.257C224.323 347.808 224.478 345.191 223.963 342.664L223.717 341.51C223.229 339.329 222.259 337.285 220.877 335.529C219.494 333.772 217.736 332.348 215.731 331.361C213.773 330.351 212.094 328.872 210.845 327.056C209.596 325.24 208.815 323.144 208.572 320.954C208.329 318.763 208.631 316.547 209.451 314.501C210.271 312.456 211.584 310.645 213.273 309.229C214.963 307.813 216.976 306.837 219.133 306.388C221.29 305.938 223.526 306.028 225.64 306.651C227.754 307.273 229.681 308.409 231.251 309.956C232.82 311.503 233.983 313.415 234.635 315.52L234.62 315.52ZM208.33 347.203C208.106 351.117 206.767 354.885 204.469 358.062C202.172 361.239 199.013 363.692 195.365 365.13C193.574 365.804 192.014 366.977 190.87 368.512C189.725 370.046 189.045 371.876 188.91 373.785L188.826 375.263C188.739 377.686 189.562 380.055 191.134 381.902C192.259 383.316 192.809 385.102 192.673 386.903C192.518 388.761 191.657 390.488 190.268 391.731C188.878 392.973 187.065 393.635 185.202 393.582C183.803 393.52 182.452 393.051 181.316 392.233C180.18 391.414 179.307 390.281 178.806 388.973C178.305 387.666 178.197 386.24 178.496 384.872C178.794 383.503 179.486 382.252 180.486 381.271C182.272 379.554 183.349 377.228 183.502 374.755L183.571 373.493C183.655 371.579 183.188 369.682 182.225 368.026C181.262 366.37 179.844 365.026 178.139 364.153C174.585 362.263 171.665 359.369 169.743 355.832C167.822 352.295 166.984 348.271 167.333 344.261C167.683 340.251 169.204 336.432 171.709 333.28C174.213 330.129 177.589 327.784 181.417 326.537C182.843 326.098 184.103 325.238 185.032 324.07C185.96 322.901 186.513 321.479 186.618 319.99C186.689 318.755 186.444 317.522 185.905 316.409C185.366 315.295 184.552 314.338 183.54 313.627C181.443 312.164 179.881 310.055 179.095 307.622C178.308 305.189 178.339 302.565 179.182 300.151C180.026 297.737 181.636 295.665 183.767 294.252C185.898 292.838 188.433 292.161 190.985 292.322C193.537 292.484 195.966 293.476 197.902 295.147C199.837 296.819 201.173 299.077 201.705 301.578C202.237 304.08 201.937 306.686 200.849 309.001C199.761 311.315 197.946 313.21 195.681 314.396C194.604 314.981 193.696 315.834 193.044 316.871C192.391 317.909 192.017 319.097 191.957 320.321C191.893 321.811 192.281 323.287 193.07 324.553C193.86 325.819 195.014 326.817 196.381 327.415C200.135 329.133 203.283 331.944 205.415 335.48C207.546 339.016 208.562 343.112 208.33 347.234L208.33 347.203ZM170.268 318.674C169.771 320.862 168.731 322.889 167.244 324.568C165.756 326.248 163.87 327.526 161.759 328.284C159.671 329.046 157.784 330.274 156.24 331.874C154.697 333.473 153.537 335.403 152.849 337.517L152.511 338.54C151.723 341.01 151.593 343.644 152.132 346.18C152.672 348.716 153.863 351.068 155.588 353.004C158.435 356.275 160.128 360.391 160.406 364.718C160.684 369.045 159.532 373.344 157.127 376.952C154.723 380.56 151.199 383.278 147.098 384.687C142.997 386.095 138.547 386.117 134.432 384.748C130.318 383.38 126.767 380.696 124.327 377.112C121.888 373.527 120.694 369.24 120.93 364.91C121.166 360.581 122.818 356.449 125.633 353.15C128.448 349.852 132.269 347.57 136.508 346.657C139.027 346.121 141.363 344.938 143.285 343.223C145.206 341.508 146.647 339.321 147.464 336.878L147.833 335.747C148.5 333.615 148.68 331.362 148.36 329.151C148.041 326.941 147.23 324.83 145.986 322.975C144.791 321.12 144.073 318.998 143.896 316.799C143.719 314.599 144.089 312.389 144.973 310.367C145.857 308.345 147.227 306.573 148.962 305.209C150.697 303.845 152.742 302.931 154.916 302.549C157.089 302.166 159.323 302.328 161.419 303.019C163.515 303.709 165.408 304.908 166.929 306.507C168.449 308.107 169.551 310.057 170.135 312.186C170.719 314.314 170.767 316.554 170.276 318.705L170.268 318.674ZM131.66 332.977C129.512 336.257 126.469 338.853 122.891 340.456C119.313 342.06 115.35 342.604 111.472 342.025C109.583 341.713 107.645 341.95 105.887 342.707C104.129 343.464 102.626 344.709 101.554 346.295L100.739 347.526C99.4501 349.589 98.9782 352.058 99.4156 354.451C99.6907 356.24 99.2814 358.067 98.2692 359.567C97.2074 361.1 95.5978 362.167 93.7726 362.547C91.9473 362.928 90.0456 362.594 88.4596 361.614C87.2765 360.861 86.3394 359.779 85.7637 358.501C85.1881 357.222 84.9991 355.803 85.2199 354.418C85.4407 353.034 86.0617 351.744 87.0064 350.708C87.9512 349.672 89.1784 348.935 90.5369 348.588C92.9419 347.994 95.0368 346.52 96.4074 344.456L97.0997 343.395C98.1217 341.783 98.6611 339.912 98.6543 338.003C98.6475 336.095 98.0947 334.228 97.0612 332.623C94.9313 329.209 93.8524 325.243 93.9587 321.22C94.0651 317.198 95.3521 313.295 97.6595 309.998C99.9669 306.7 103.193 304.155 106.936 302.677C110.679 301.199 114.774 300.855 118.712 301.686C120.166 302.019 121.688 301.903 123.075 301.354C124.462 300.804 125.65 299.847 126.482 298.609C127.16 297.572 127.56 296.38 127.647 295.145C127.733 293.91 127.502 292.674 126.975 291.554C125.886 289.242 125.582 286.637 126.111 284.137C126.64 281.637 127.972 279.379 129.905 277.706C131.837 276.034 134.263 275.04 136.813 274.875C139.364 274.711 141.898 275.385 144.029 276.795C146.16 278.205 147.771 280.274 148.617 282.685C149.463 285.096 149.497 287.718 148.714 290.151C147.93 292.583 146.373 294.693 144.279 296.157C142.185 297.622 139.669 298.361 137.115 298.263C135.896 298.236 134.689 298.523 133.612 299.095C132.534 299.668 131.621 300.507 130.96 301.532C130.157 302.79 129.754 304.263 129.805 305.754C129.856 307.246 130.358 308.687 131.245 309.888C133.621 313.251 134.932 317.251 135.006 321.369C135.08 325.486 133.914 329.531 131.66 332.977ZM112.964 289.238C111.439 290.884 109.524 292.12 107.396 292.832C105.267 293.545 102.994 293.711 100.785 293.315C98.6015 292.928 96.3584 293.043 94.2256 293.651C92.0929 294.258 90.1263 295.344 88.475 296.824L87.7056 297.539C85.7795 299.28 84.3406 301.492 83.5311 303.959C82.7215 306.425 82.5693 309.06 83.0893 311.604C83.9169 315.858 83.3233 320.266 81.3999 324.15C79.4765 328.034 76.3299 331.178 72.4445 333.098C68.5591 335.018 64.1502 335.608 59.8967 334.777C55.6432 333.945 51.7808 331.739 48.9041 328.498C46.0273 325.256 44.2958 321.159 43.976 316.837C43.6561 312.515 44.7655 308.207 47.1337 304.578C49.5019 300.948 52.9976 298.197 57.0824 296.749C61.1672 295.301 65.6147 295.235 69.7404 296.562C72.1901 297.361 74.8061 297.505 77.3287 296.98C79.8512 296.455 82.1924 295.279 84.1201 293.569L85.005 292.8C86.649 291.286 87.9324 289.422 88.7607 287.346C89.5889 285.27 89.9408 283.035 89.7906 280.805C89.6889 278.604 90.1326 276.413 91.0822 274.425C92.0317 272.437 93.4578 270.714 95.2336 269.41C97.0093 268.106 99.0797 267.261 101.261 266.95C103.442 266.639 105.666 266.872 107.735 267.628C109.805 268.384 111.655 269.639 113.123 271.282C114.59 272.926 115.629 274.906 116.146 277.048C116.664 279.189 116.644 281.425 116.089 283.557C115.534 285.689 114.46 287.651 112.964 289.268L112.964 289.238ZM72.3793 282.313C68.8791 284.079 64.9459 284.805 61.0459 284.404C57.1459 284.003 53.4427 282.492 50.375 280.051C48.8955 278.837 47.0984 278.072 45.1973 277.848C43.2962 277.625 41.3709 277.951 39.6499 278.789L38.3341 279.451C36.1895 280.59 34.5443 282.484 33.7178 284.767C33.0649 286.452 31.7975 287.827 30.171 288.614C28.4853 289.408 26.5595 289.524 24.7904 288.94C23.0213 288.356 21.5435 287.116 20.6613 285.475C20.01 284.233 19.7372 282.826 19.8765 281.43C20.0158 280.034 20.5609 278.709 21.445 277.62C22.329 276.53 23.513 275.724 24.8505 275.3C26.188 274.876 27.6207 274.853 28.9709 275.235C31.3501 275.924 33.9013 275.693 36.1183 274.589L37.2493 274.019C38.9503 273.137 40.3622 271.785 41.3169 270.124C42.2717 268.463 42.7292 266.562 42.635 264.648C42.4936 260.625 43.5392 256.649 45.6415 253.216C47.7438 249.783 50.8098 247.044 54.4575 245.341C58.1053 243.638 62.1734 243.047 66.1551 243.64C70.1369 244.232 73.8561 245.984 76.8495 248.676C77.9428 249.692 79.318 250.353 80.7943 250.573C82.2705 250.792 83.7786 250.56 85.1204 249.907C86.2269 249.349 87.1717 248.516 87.8641 247.488C88.5565 246.46 88.9735 245.271 89.0751 244.036C89.2865 241.49 90.3252 239.082 92.0326 237.181C93.7401 235.28 96.0226 233.989 98.532 233.506C101.041 233.023 103.64 233.374 105.931 234.506C108.222 235.638 110.08 237.488 111.222 239.774C112.363 242.061 112.726 244.657 112.253 247.169C111.781 249.68 110.5 251.968 108.607 253.684C106.713 255.399 104.309 256.449 101.764 256.671C99.218 256.893 96.6695 256.277 94.5068 254.915C93.4613 254.276 92.269 253.916 91.0442 253.87C89.8195 253.824 88.6036 254.094 87.5132 254.654C86.1885 255.342 85.1034 256.415 84.4015 257.732C83.6996 259.05 83.4137 260.549 83.5816 262.032C83.977 266.15 83.119 270.291 81.12 273.913C79.121 277.535 76.0743 280.468 72.3793 282.329L72.3793 282.313ZM78.0575 235.088C75.9142 235.752 73.6384 235.864 71.4399 235.417C69.2415 234.969 67.1912 233.975 65.478 232.526C63.7808 231.097 61.7807 230.074 59.6293 229.533C57.4778 228.991 55.2314 228.947 53.0602 229.403L52.006 229.626C49.4709 230.178 47.1234 231.38 45.1943 233.115C43.2651 234.85 41.821 237.058 41.004 239.52C39.5928 243.615 36.8747 247.134 33.2683 249.533C29.6618 251.932 25.3668 253.08 21.0441 252.8C16.7215 252.519 12.6108 250.826 9.34483 247.98C6.07884 245.135 3.83877 241.295 2.96886 237.051C2.09896 232.808 2.64759 228.396 4.53055 224.495C6.4135 220.594 9.52617 217.42 13.3897 215.461C17.2533 213.502 21.6536 212.867 25.9133 213.654C30.1729 214.441 34.056 216.606 36.9647 219.816C38.684 221.737 40.8765 223.174 43.3238 223.984C45.7711 224.794 48.3879 224.948 50.9136 224.432L52.0753 224.186C54.2555 223.699 56.2984 222.728 58.0535 221.346C59.8085 219.964 61.2309 218.205 62.2158 216.2C63.2249 214.238 64.7038 212.555 66.5207 211.303C68.3375 210.05 70.4357 209.266 72.6288 209.021C74.8218 208.776 77.0414 209.078 79.0898 209.898C81.1383 210.719 82.952 212.033 84.3694 213.725C85.7867 215.416 86.7638 217.432 87.2134 219.592C87.6631 221.752 87.5714 223.99 86.9465 226.107C86.3217 228.223 85.1831 230.152 83.6321 231.722C82.0812 233.292 80.1662 234.453 78.0575 235.104L78.0575 235.088ZM46.3743 208.798C42.4607 208.576 38.6927 207.237 35.5169 204.94C32.341 202.642 29.8902 199.482 28.4551 195.834C27.7806 194.042 26.606 192.481 25.0703 191.336C23.5345 190.192 21.7025 189.513 19.792 189.379L18.3224 189.295C15.897 189.213 13.5282 190.036 11.6752 191.603C10.2622 192.729 8.47564 193.278 6.67415 193.142C4.81734 192.987 3.09033 192.126 1.84935 190.736C0.608363 189.346 -0.0524025 187.533 0.0032767 185.671C0.0646261 184.272 0.533633 182.921 1.35233 181.785C2.17103 180.649 3.30392 179.776 4.61169 179.275C5.91947 178.774 7.345 178.666 8.71332 178.964C10.0816 179.263 11.3329 179.955 12.3134 180.955C14.0309 182.741 16.3568 183.817 18.8303 183.97L20.0922 184.04C22.0044 184.122 23.9002 183.654 25.5545 182.691C27.2088 181.729 28.5519 180.311 29.4247 178.608C31.3157 175.054 34.21 172.135 37.7476 170.214C41.2852 168.294 45.3097 167.456 49.32 167.805C53.3302 168.154 57.1492 169.676 60.3013 172.179C63.4535 174.683 65.7995 178.058 67.0475 181.885C67.4855 183.312 68.3456 184.573 69.5144 185.502C70.6832 186.43 72.1059 186.983 73.595 187.086C74.8299 187.158 76.0626 186.912 77.1761 186.374C78.2897 185.835 79.2471 185.021 79.9578 184.009C81.4205 181.914 83.5282 180.355 85.9596 179.569C88.391 178.784 91.0128 178.815 93.4247 179.659C95.8366 180.502 97.9065 182.111 99.3187 184.24C100.731 186.37 101.408 188.903 101.246 191.453C101.084 194.003 100.093 196.43 98.4236 198.364C96.754 200.298 94.4973 201.633 91.9982 202.165C89.4991 202.698 86.8946 202.398 84.5818 201.312C82.269 200.226 80.3749 198.413 79.1884 196.15C78.6055 195.072 77.7537 194.163 76.7156 193.512C75.6774 192.861 74.4884 192.489 73.2642 192.434C71.774 192.366 70.2983 192.752 69.0319 193.541C67.7655 194.329 66.7679 195.483 66.1705 196.85C64.4563 200.603 61.6502 203.753 58.1187 205.887C54.5871 208.021 50.4944 209.041 46.3743 208.814L46.3743 208.798ZM74.9106 170.737C72.722 170.24 70.6939 169.2 69.0131 167.713C67.3323 166.226 66.0529 164.339 65.2933 162.228C64.5372 160.142 63.3164 158.257 61.7235 156.713C60.1305 155.169 58.2073 154.008 56.0992 153.318L55.0759 152.98C52.604 152.192 49.9697 152.062 47.4322 152.601C44.8946 153.141 42.5414 154.332 40.6039 156.057C37.3332 158.904 33.2173 160.597 28.8901 160.875C24.5629 161.153 20.2645 160.001 16.6562 157.596C13.048 155.192 10.3302 151.667 8.92145 147.567C7.51269 143.466 7.49113 139.015 8.85984 134.901C10.2286 130.787 12.9116 127.236 16.4962 124.796C20.0808 122.357 24.3681 121.163 28.6978 121.399C33.0275 121.635 37.1595 123.287 40.4578 126.102C43.7561 128.917 46.0377 132.738 46.9513 136.976C47.4866 139.497 48.6712 141.834 50.3878 143.756C52.1044 145.677 54.2934 147.117 56.7379 147.932L57.8611 148.302C59.9938 148.969 62.2489 149.149 64.4604 148.829C66.672 148.51 68.7838 147.699 70.6405 146.455C72.4954 145.26 74.6174 144.541 76.8172 144.364C79.017 144.188 81.2264 144.558 83.2486 145.441C85.2707 146.325 87.0428 147.696 88.407 149.431C89.7711 151.165 90.685 153.211 91.0671 155.384C91.4492 157.558 91.2877 159.792 90.597 161.888C89.9063 163.984 88.7079 165.877 87.1084 167.398C85.509 168.918 83.5583 170.02 81.4301 170.604C79.3019 171.188 77.0621 171.236 74.9106 170.745L74.9106 170.737ZM60.6156 132.129C57.3377 129.979 54.7442 126.935 53.1421 123.357C51.54 119.78 50.9963 115.818 51.5753 111.941C51.887 110.052 51.6504 108.114 50.8935 106.356C50.1366 104.598 48.8912 103.095 47.3052 102.023L46.0741 101.208C44.011 99.9204 41.5421 99.4486 39.1497 99.8845C37.3607 100.159 35.5341 99.7496 34.0333 98.7381C32.5021 97.6751 31.4366 96.0656 31.0559 94.2409C30.6752 92.4162 31.0082 90.515 31.9866 88.9284C32.7391 87.7454 33.8214 86.8083 35.0999 86.2327C36.3783 85.6571 37.7974 85.468 39.182 85.6888C40.5666 85.9096 41.8561 86.5306 42.8921 87.4753C43.9281 88.4201 44.6653 89.6473 45.0125 91.0057C45.6088 93.4117 47.0858 95.5064 49.1516 96.8762L50.2058 97.5686C51.8141 98.5963 53.6829 99.1424 55.5915 99.1424C57.5001 99.1424 59.3689 98.5963 60.9772 97.5686C64.3917 95.4362 68.358 94.3552 72.3823 94.4604C76.4066 94.5655 80.3111 95.852 83.6096 98.1598C86.9081 100.468 89.455 103.695 90.933 107.439C92.411 111.184 92.7549 115.281 91.9218 119.219C91.5883 120.675 91.7037 122.197 92.2531 123.586C92.8026 124.975 93.7601 126.164 94.9993 126.998C96.0371 127.675 97.2307 128.075 98.4668 128.162C99.703 128.248 100.941 128.017 102.062 127.49C104.043 126.552 106.248 126.19 108.425 126.445C110.602 126.701 112.663 127.564 114.372 128.936C116.741 130.812 118.293 133.53 118.705 136.523C119.116 139.517 118.354 142.553 116.579 144.998C114.804 147.443 112.152 149.107 109.179 149.642C106.205 150.177 103.14 149.543 100.624 147.871C98.9351 146.765 97.5621 145.24 96.6384 143.446C95.7147 141.651 95.2719 139.647 95.3532 137.63C95.3795 136.411 95.0928 135.204 94.5203 134.127C93.9479 133.049 93.1089 132.136 92.0833 131.475C90.8234 130.673 89.3504 130.272 87.8577 130.322C86.3651 130.373 84.9226 130.874 83.72 131.76C80.3553 134.141 76.3518 135.453 72.2307 135.526C68.1097 135.598 64.0622 134.428 60.6156 132.168L60.6156 132.129ZM280.167 104.824C281.69 103.177 283.604 101.941 285.731 101.229C287.859 100.518 290.131 100.354 292.339 100.754C294.522 101.141 296.765 101.027 298.898 100.419C301.031 99.8109 302.998 98.7257 304.649 97.2454L305.418 96.53C307.344 94.7895 308.783 92.5768 309.593 90.1103C310.402 87.6439 310.555 85.0089 310.035 82.4656C309.203 78.21 309.794 73.7991 311.715 69.912C313.637 66.025 316.783 62.8773 320.669 60.9536C324.555 59.03 328.965 58.437 333.221 59.266C337.477 60.095 341.343 62.3 344.223 65.5416C347.103 68.7831 348.837 72.8815 349.159 77.2056C349.481 81.5297 348.373 85.8397 346.006 89.4722C343.638 93.1046 340.141 95.858 336.055 97.3085C331.969 98.7589 327.519 98.826 323.391 97.4993C320.941 96.7016 318.325 96.5581 315.803 97.0831C313.281 97.6081 310.939 98.7833 309.011 100.492L308.127 101.262C306.482 102.774 305.198 104.636 304.368 106.711C303.539 108.785 303.185 111.019 303.333 113.249C303.436 115.45 302.993 117.643 302.044 119.632C301.095 121.621 299.669 123.345 297.893 124.65C296.117 125.955 294.046 126.8 291.864 127.111C289.682 127.423 287.458 127.19 285.387 126.433C283.317 125.677 281.466 124.421 279.999 122.777C278.532 121.132 277.493 119.151 276.977 117.008C276.46 114.866 276.481 112.629 277.037 110.496C277.594 108.364 278.669 106.402 280.167 104.785L280.167 104.824Z" fill="url(#paint2_linear_152_84)"/>
<path opacity="0.15" d="M227.274 67.5459C225.72 69.1642 224.599 71.1472 224.012 73.3124L223.999 73.3042C223.425 75.432 223.386 77.6687 223.885 79.8153C224.384 81.962 225.405 83.952 226.859 85.6084C228.313 87.2647 230.154 88.5361 232.217 89.3093C234.281 90.0826 236.504 90.3339 238.688 90.0407C240.873 89.7475 242.951 88.9189 244.737 87.6287C246.524 86.3385 247.964 84.6267 248.93 82.6456C249.895 80.6645 250.356 78.4754 250.271 76.2732C250.186 74.0709 249.559 71.9238 248.444 70.0227C247.277 68.1167 246.552 65.9733 246.323 63.7502C246.094 61.5271 246.366 59.2809 247.12 57.1769L247.529 56.0701C248.445 53.6593 249.975 51.53 251.968 49.8938C253.962 48.2577 256.348 47.1715 258.891 46.7433C263.161 46 267.068 43.8741 270.011 40.6929C272.954 37.5116 274.769 33.4512 275.179 29.1368C275.588 24.8225 274.568 20.4932 272.275 16.8154C269.983 13.1376 266.545 10.3152 262.492 8.78253C258.438 7.24987 253.993 7.09201 249.841 8.33315C245.688 9.57428 242.059 12.1457 239.512 15.6515C236.964 19.1573 235.639 23.4033 235.741 27.7359C235.843 32.0684 237.366 36.2473 240.076 39.6294C241.721 41.6349 242.814 44.0341 243.25 46.5908C243.686 49.1475 243.448 51.7736 242.56 54.2105L242.185 55.2204C241.41 57.3006 240.171 59.177 238.563 60.707C236.954 62.2371 235.019 63.3808 232.902 64.0513C230.763 64.7259 228.827 65.9276 227.274 67.5459Z" fill="url(#paint3_linear_152_84)"/>
<path opacity="0.15" d="M104.358 102.7C105.583 104.551 107.253 106.064 109.215 107.101L109.204 107.112C111.133 108.128 113.284 108.652 115.464 108.636C117.644 108.621 119.787 108.067 121.701 107.023C123.616 105.98 125.242 104.48 126.437 102.656C127.632 100.832 128.357 98.7408 128.548 96.569C128.74 94.3971 128.391 92.2115 127.534 90.2068C126.677 88.2021 125.338 86.4403 123.635 85.0782C121.933 83.716 119.92 82.7958 117.776 82.3993C115.632 82.0028 113.424 82.1424 111.347 82.8056C109.254 83.5178 107.027 83.7516 104.832 83.4899C102.637 83.2282 100.528 82.4776 98.6608 81.2933L97.6813 80.6581C95.5534 79.2507 93.8307 77.3111 92.6844 75.0318C91.5382 72.7526 91.0083 70.213 91.1474 67.6656C91.3573 63.3834 90.154 59.1508 87.7227 55.6195C85.2914 52.0881 81.7669 49.4538 77.6916 48.1218C73.6164 46.7898 69.2164 46.8342 65.1689 48.2479C61.1213 49.6616 57.6505 52.3664 55.2908 55.946C52.9311 59.5256 51.8133 63.7814 52.1094 68.0585C52.4055 72.3357 54.099 76.397 56.9294 79.6173C59.7598 82.8376 63.5702 85.0383 67.7739 85.8809C71.9777 86.7235 76.3418 86.1612 80.1946 84.2804C82.4874 83.1288 85.0407 82.5941 87.6029 82.729C90.1652 82.864 92.6481 83.6638 94.8072 85.05L95.7006 85.6313C97.5399 86.8313 99.0819 88.4344 100.209 90.3191C101.337 92.2037 102.02 94.3205 102.208 96.5086C102.394 98.72 103.134 100.849 104.358 102.7Z" fill="url(#paint4_linear_152_84)"/>
<path opacity="0.26" d="M221.861 38.2309C223.121 41.5317 223.409 45.1237 222.691 48.582L222.715 48.6066C221.96 52.2427 220.128 55.5667 217.456 58.1456C214.784 60.7245 211.398 62.4386 207.737 63.0648C206.407 63.2664 205.168 63.8659 204.185 64.7844C203.202 65.7029 202.52 66.8974 202.228 68.2111C201.996 69.2857 202.043 70.4019 202.366 71.4532C202.688 72.5046 203.274 73.456 204.068 74.2167C205.405 75.4502 206.4 77.0092 206.955 78.7414C207.511 80.4736 207.608 82.3199 207.237 84.1004C206.699 86.7691 205.151 89.1261 202.916 90.679C200.68 92.232 197.931 92.8606 195.242 92.4334C192.553 92.0062 190.133 90.5563 188.487 88.3867C186.841 86.2172 186.098 83.4959 186.411 80.7917C186.626 78.8283 187.389 76.9653 188.613 75.4155C189.836 73.8657 191.472 72.6918 193.331 72.028C194.382 71.649 195.317 71.0079 196.05 70.1656C196.782 69.3232 197.287 68.3075 197.517 67.2149C197.775 65.8943 197.627 64.5263 197.092 63.2913C196.557 62.0563 195.66 61.0124 194.52 60.2972C191.479 58.3178 189.088 55.4879 187.643 52.1599C186.198 48.832 185.764 45.1529 186.394 41.5809C187.025 38.0089 188.692 34.7017 191.188 32.0711C193.685 29.4405 196.9 27.6028 200.435 26.7867C202.114 26.4171 203.653 25.5747 204.868 24.3588C206.084 23.143 206.927 21.6045 207.296 19.925L207.527 18.8122C207.97 16.6233 207.575 14.3474 206.422 12.4342C205.777 11.3473 205.465 10.0956 205.523 8.83355C205.581 7.57149 206.006 6.35426 206.748 5.33151C207.489 4.30876 208.513 3.52525 209.695 3.07769C210.876 2.63013 212.163 2.53796 213.396 2.81257C215.03 3.20042 216.454 4.19988 217.374 5.60529C218.295 7.01071 218.642 8.71514 218.344 10.368C218.032 11.9687 217.13 13.3931 215.815 14.3579C214.013 15.6041 212.741 17.4776 212.248 19.6123L211.983 20.9162C211.655 22.6093 211.821 24.3611 212.459 25.9635C213.097 27.566 214.181 28.9519 215.583 29.9568C218.423 32.0589 220.602 34.9302 221.861 38.2309Z" fill="url(#paint5_linear_152_84)"/>
<path opacity="0.26" d="M133.236 41.7443C136.578 43.2387 139.422 45.6577 141.43 48.7153L141.466 48.7153C143.578 51.9301 144.671 55.7054 144.603 59.5494C144.535 63.3933 143.309 67.1276 141.085 70.2661C140.258 71.3878 139.79 72.7333 139.742 74.1255C139.695 75.5178 140.07 76.8919 140.819 78.0671C141.437 79.0237 142.289 79.8063 143.296 80.3402C144.303 80.8742 145.43 81.1416 146.569 81.117C148.453 81.0412 150.325 81.4543 152.001 82.3159C153.678 83.1774 155.102 84.4581 156.135 86.033C157.697 88.3803 158.29 91.2395 157.79 94.013C157.29 96.7866 155.735 99.2598 153.451 100.916C151.168 102.571 148.331 103.282 145.535 102.898C142.739 102.515 140.199 101.067 138.447 98.8573C137.166 97.2628 136.359 95.3404 136.12 93.3099C135.881 91.2793 136.22 89.2226 137.096 87.375C137.588 86.3287 137.804 85.1743 137.724 84.0213C137.643 82.8683 137.269 81.7549 136.636 80.7869C135.858 79.631 134.746 78.738 133.449 78.2255C132.152 77.713 130.73 77.6053 129.37 77.9164C125.691 78.6934 121.864 78.3727 118.365 76.9941C114.867 75.6155 111.853 73.2398 109.697 70.1631C107.541 67.0864 106.339 63.4445 106.241 59.6908C106.143 55.9371 107.153 52.2375 109.145 49.0526C110.105 47.5524 110.615 45.8093 110.615 44.029C110.615 42.2487 110.105 40.5055 109.145 39.0054L108.498 38.0222C107.218 36.0953 105.261 34.7176 103.014 34.1613C101.745 33.8375 100.598 33.15 99.7158 32.1836C98.8332 31.2173 98.2532 30.0144 98.0469 28.7229C97.8406 27.4314 98.0172 26.1078 98.555 24.9152C99.0927 23.7227 99.9681 22.7133 101.073 22.0114C102.555 21.0988 104.331 20.7882 106.036 21.1433C107.741 21.4984 109.244 22.4921 110.237 23.9204C111.182 25.3203 111.564 27.0241 111.308 28.6927C110.901 30.9242 111.342 33.2272 112.544 35.1516L113.306 36.2998C114.307 37.7792 115.712 38.9409 117.354 39.6469C118.996 40.3529 120.806 40.5736 122.571 40.2829C126.192 39.7428 129.894 40.2499 133.236 41.7443Z" fill="url(#paint6_linear_152_84)"/>
<defs>
<linearGradient id="paint0_linear_152_84" x1="109.964" y1="-0.143408" x2="-1.4884" y2="335.395" gradientUnits="userSpaceOnUse">
<stop stop-color="#3C9468"/>
<stop offset="0.25" stop-color="#1D8093"/>
<stop offset="0.84" stop-color="#4FA04E"/>
<stop offset="0.956731" stop-color="#0470B7"/>
<stop offset="1" stop-color="#56A544"/>
</linearGradient>
<linearGradient id="paint1_linear_152_84" x1="194.129" y1="136.017" x2="67.874" y2="-115.37" gradientUnits="userSpaceOnUse">
<stop stop-color="#3C9468"/>
<stop offset="0.25" stop-color="#1D8093"/>
<stop offset="0.84" stop-color="#4FA04E"/>
<stop offset="0.956731" stop-color="#0470B7"/>
<stop offset="1" stop-color="#56A544"/>
</linearGradient>
<linearGradient id="paint2_linear_152_84" x1="134.704" y1="385.054" x2="258.517" y2="9.57864" gradientUnits="userSpaceOnUse">
<stop stop-color="#0470B7"/>
<stop offset="0.25" stop-color="#1D8093"/>
<stop offset="0.58" stop-color="#3C9468"/>
<stop offset="0.84" stop-color="#4FA04E"/>
<stop offset="1" stop-color="#56A544"/>
</linearGradient>
<linearGradient id="paint3_linear_152_84" x1="222.353" y1="-22.5664" x2="-83.0159" y2="228.554" gradientUnits="userSpaceOnUse">
<stop stop-color="#3C9468"/>
<stop offset="0.25" stop-color="#1D8093"/>
<stop offset="0.84" stop-color="#4FA04E"/>
<stop offset="0.956731" stop-color="#0470B7"/>
<stop offset="1" stop-color="#56A544"/>
</linearGradient>
<linearGradient id="paint4_linear_152_84" x1="16.316" y1="87.8777" x2="192.364" y2="437.151" gradientUnits="userSpaceOnUse">
<stop stop-color="#3C9468"/>
<stop offset="0.25" stop-color="#1D8093"/>
<stop offset="0.84" stop-color="#4FA04E"/>
<stop offset="0.956731" stop-color="#0470B7"/>
<stop offset="1" stop-color="#56A544"/>
</linearGradient>
<linearGradient id="paint5_linear_152_84" x1="154.615" y1="143.679" x2="-67.5923" y2="-29.2941" gradientUnits="userSpaceOnUse">
<stop stop-color="#3C9468"/>
<stop offset="0.25" stop-color="#1D8093"/>
<stop offset="0.84" stop-color="#4FA04E"/>
<stop offset="0.956731" stop-color="#0470B7"/>
<stop offset="1" stop-color="#56A544"/>
</linearGradient>
<linearGradient id="paint6_linear_152_84" x1="161.234" y1="168.177" x2="-128.386" y2="204.299" gradientUnits="userSpaceOnUse">
<stop stop-color="#3C9468"/>
<stop offset="0.25" stop-color="#1D8093"/>
<stop offset="0.84" stop-color="#4FA04E"/>
<stop offset="0.956731" stop-color="#0470B7"/>
<stop offset="1" stop-color="#56A544"/>
</linearGradient>
</defs>
</svg>
